<mxfile host="app.diagrams.net" modified="2023-11-19T19:30:05.299Z" agent="Mozilla/5.0 (Windows NT 10.0; Win64; x64) AppleWebKit/537.36 (KHTML, like Gecko) Chrome/119.0.0.0 Safari/537.36" etag="0N3IHbObxv6dRoJF78yV" version="22.1.3" type="github">
  <diagram name="Página-1" id="r11grV0YHRzc7nuVJ1_u">
    <mxGraphModel dx="880" dy="506" grid="0" gridSize="10" guides="1" tooltips="1" connect="1" arrows="1" fold="1" page="1" pageScale="1" pageWidth="850" pageHeight="1100" background="#f2f2f2" math="0" shadow="0">
      <root>
        <mxCell id="0" />
        <mxCell id="1" parent="0" />
        <mxCell id="i6MWBh2GeU2AJiRsyBhL-3" style="edgeStyle=orthogonalEdgeStyle;rounded=1;orthogonalLoop=1;jettySize=auto;html=1;exitX=0.25;exitY=0;exitDx=0;exitDy=0;endArrow=oval;endFill=1;endSize=14;startSize=6;labelBackgroundColor=none;strokeColor=#23445D;fontColor=default;" edge="1" parent="1" source="i6MWBh2GeU2AJiRsyBhL-1">
          <mxGeometry relative="1" as="geometry">
            <mxPoint x="400" y="190" as="targetPoint" />
          </mxGeometry>
        </mxCell>
        <mxCell id="i6MWBh2GeU2AJiRsyBhL-4" style="edgeStyle=orthogonalEdgeStyle;rounded=1;orthogonalLoop=1;jettySize=auto;html=1;exitX=0.75;exitY=0;exitDx=0;exitDy=0;endArrow=circle;endFill=0;strokeWidth=1;endSize=6;labelBackgroundColor=none;strokeColor=#23445D;fontColor=default;" edge="1" parent="1" source="i6MWBh2GeU2AJiRsyBhL-1">
          <mxGeometry relative="1" as="geometry">
            <mxPoint x="480" y="230" as="targetPoint" />
          </mxGeometry>
        </mxCell>
        <mxCell id="i6MWBh2GeU2AJiRsyBhL-7" style="edgeStyle=orthogonalEdgeStyle;rounded=1;orthogonalLoop=1;jettySize=auto;html=1;exitX=0;exitY=0.25;exitDx=0;exitDy=0;endArrow=circle;endFill=0;labelBackgroundColor=none;strokeColor=#23445D;fontColor=default;" edge="1" parent="1" source="i6MWBh2GeU2AJiRsyBhL-1">
          <mxGeometry relative="1" as="geometry">
            <mxPoint x="300" y="295" as="targetPoint" />
          </mxGeometry>
        </mxCell>
        <mxCell id="i6MWBh2GeU2AJiRsyBhL-13" style="edgeStyle=orthogonalEdgeStyle;rounded=1;orthogonalLoop=1;jettySize=auto;html=1;exitX=0;exitY=0.75;exitDx=0;exitDy=0;endArrow=circle;endFill=0;labelBackgroundColor=none;strokeColor=#23445D;fontColor=default;" edge="1" parent="1" source="i6MWBh2GeU2AJiRsyBhL-1">
          <mxGeometry relative="1" as="geometry">
            <mxPoint x="300" y="325" as="targetPoint" />
          </mxGeometry>
        </mxCell>
        <mxCell id="i6MWBh2GeU2AJiRsyBhL-30" style="edgeStyle=orthogonalEdgeStyle;rounded=1;orthogonalLoop=1;jettySize=auto;html=1;exitX=0.5;exitY=1;exitDx=0;exitDy=0;entryX=0.5;entryY=0;entryDx=0;entryDy=0;endArrow=ERzeroToMany;endFill=0;startArrow=ERzeroToMany;startFill=0;endSize=8;targetPerimeterSpacing=1;startSize=8;labelBackgroundColor=none;strokeColor=#23445D;fontColor=default;" edge="1" parent="1" source="i6MWBh2GeU2AJiRsyBhL-1" target="i6MWBh2GeU2AJiRsyBhL-2">
          <mxGeometry relative="1" as="geometry" />
        </mxCell>
        <mxCell id="i6MWBh2GeU2AJiRsyBhL-1" value="Costumer" style="rounded=1;whiteSpace=wrap;html=1;strokeWidth=2;labelBackgroundColor=none;fillColor=#182E3E;strokeColor=#FFFFFF;fontColor=#FFFFFF;" vertex="1" parent="1">
          <mxGeometry x="360" y="280" width="160" height="60" as="geometry" />
        </mxCell>
        <mxCell id="i6MWBh2GeU2AJiRsyBhL-26" style="edgeStyle=orthogonalEdgeStyle;rounded=1;orthogonalLoop=1;jettySize=auto;html=1;exitX=0.25;exitY=1;exitDx=0;exitDy=0;endArrow=circle;endFill=0;labelBackgroundColor=none;strokeColor=#23445D;fontColor=default;" edge="1" parent="1" source="i6MWBh2GeU2AJiRsyBhL-2">
          <mxGeometry relative="1" as="geometry">
            <mxPoint x="400" y="580" as="targetPoint" />
          </mxGeometry>
        </mxCell>
        <mxCell id="i6MWBh2GeU2AJiRsyBhL-2" value="HearthProblem" style="rounded=1;whiteSpace=wrap;html=1;strokeWidth=2;labelBackgroundColor=none;fillColor=#182E3E;strokeColor=#FFFFFF;fontColor=#FFFFFF;" vertex="1" parent="1">
          <mxGeometry x="360" y="470" width="160" height="60" as="geometry" />
        </mxCell>
        <mxCell id="i6MWBh2GeU2AJiRsyBhL-9" style="edgeStyle=orthogonalEdgeStyle;rounded=1;orthogonalLoop=1;jettySize=auto;html=1;exitX=1;exitY=0.25;exitDx=0;exitDy=0;endArrow=circle;endFill=0;strokeWidth=1;endSize=6;labelBackgroundColor=none;strokeColor=#23445D;fontColor=default;" edge="1" parent="1" source="i6MWBh2GeU2AJiRsyBhL-1">
          <mxGeometry relative="1" as="geometry">
            <mxPoint x="580" y="295" as="targetPoint" />
            <mxPoint x="560" y="290" as="sourcePoint" />
          </mxGeometry>
        </mxCell>
        <mxCell id="i6MWBh2GeU2AJiRsyBhL-11" style="edgeStyle=orthogonalEdgeStyle;rounded=1;orthogonalLoop=1;jettySize=auto;html=1;exitX=1;exitY=0.25;exitDx=0;exitDy=0;endArrow=circle;endFill=0;strokeWidth=1;endSize=6;labelBackgroundColor=none;strokeColor=#23445D;fontColor=default;" edge="1" parent="1">
          <mxGeometry relative="1" as="geometry">
            <mxPoint x="580" y="320" as="targetPoint" />
            <mxPoint x="520" y="320" as="sourcePoint" />
          </mxGeometry>
        </mxCell>
        <mxCell id="i6MWBh2GeU2AJiRsyBhL-14" value="code" style="text;html=1;align=center;verticalAlign=middle;resizable=0;points=[];autosize=1;strokeColor=none;fillColor=none;labelBackgroundColor=none;fontColor=#000000;rounded=1;" vertex="1" parent="1">
          <mxGeometry x="360" y="160" width="50" height="30" as="geometry" />
        </mxCell>
        <mxCell id="i6MWBh2GeU2AJiRsyBhL-15" value="name" style="text;html=1;align=center;verticalAlign=middle;resizable=0;points=[];autosize=1;strokeColor=none;fillColor=none;labelBackgroundColor=none;fontColor=#030303;rounded=1;" vertex="1" parent="1">
          <mxGeometry x="470" y="200" width="50" height="30" as="geometry" />
        </mxCell>
        <mxCell id="i6MWBh2GeU2AJiRsyBhL-17" value="gender" style="text;html=1;align=center;verticalAlign=middle;resizable=0;points=[];autosize=1;strokeColor=none;fillColor=none;labelBackgroundColor=none;fontColor=#050505;rounded=1;" vertex="1" parent="1">
          <mxGeometry x="555" y="260" width="60" height="30" as="geometry" />
        </mxCell>
        <mxCell id="i6MWBh2GeU2AJiRsyBhL-18" value="date_of_birth" style="text;html=1;align=center;verticalAlign=middle;resizable=0;points=[];autosize=1;strokeColor=none;fillColor=none;labelBackgroundColor=none;fontColor=#000000;rounded=1;" vertex="1" parent="1">
          <mxGeometry x="550" y="320" width="90" height="30" as="geometry" />
        </mxCell>
        <mxCell id="i6MWBh2GeU2AJiRsyBhL-19" value="update_date" style="text;html=1;align=center;verticalAlign=middle;resizable=0;points=[];autosize=1;strokeColor=none;fillColor=none;labelBackgroundColor=none;fontColor=#050505;rounded=1;" vertex="1" parent="1">
          <mxGeometry x="240" y="330" width="90" height="30" as="geometry" />
        </mxCell>
        <mxCell id="i6MWBh2GeU2AJiRsyBhL-20" value="create_date" style="text;html=1;align=center;verticalAlign=middle;resizable=0;points=[];autosize=1;strokeColor=none;fillColor=none;labelBackgroundColor=none;fontColor=#030303;rounded=1;" vertex="1" parent="1">
          <mxGeometry x="240" y="260" width="90" height="30" as="geometry" />
        </mxCell>
        <mxCell id="i6MWBh2GeU2AJiRsyBhL-27" style="edgeStyle=orthogonalEdgeStyle;rounded=1;orthogonalLoop=1;jettySize=auto;html=1;exitX=0.25;exitY=1;exitDx=0;exitDy=0;endArrow=circle;endFill=0;labelBackgroundColor=none;strokeColor=#23445D;fontColor=default;" edge="1" parent="1">
          <mxGeometry relative="1" as="geometry">
            <mxPoint x="470" y="580" as="targetPoint" />
            <mxPoint x="470" y="530" as="sourcePoint" />
            <Array as="points">
              <mxPoint x="470" y="550" />
              <mxPoint x="470" y="550" />
            </Array>
          </mxGeometry>
        </mxCell>
        <mxCell id="i6MWBh2GeU2AJiRsyBhL-28" value="name" style="text;html=1;align=center;verticalAlign=middle;resizable=0;points=[];autosize=1;strokeColor=none;fillColor=none;labelBackgroundColor=none;fontColor=#080808;rounded=1;" vertex="1" parent="1">
          <mxGeometry x="350" y="560" width="50" height="30" as="geometry" />
        </mxCell>
        <mxCell id="i6MWBh2GeU2AJiRsyBhL-29" value="degree" style="text;html=1;align=center;verticalAlign=middle;resizable=0;points=[];autosize=1;strokeColor=none;fillColor=none;labelBackgroundColor=none;fontColor=#030303;rounded=1;" vertex="1" parent="1">
          <mxGeometry x="475" y="560" width="60" height="30" as="geometry" />
        </mxCell>
        <mxCell id="i6MWBh2GeU2AJiRsyBhL-48" value="&lt;h1&gt;DER - Oli Saúde&lt;/h1&gt;" style="text;html=1;strokeColor=none;fillColor=none;spacing=5;spacingTop=-20;whiteSpace=wrap;overflow=hidden;rounded=1;labelBackgroundColor=none;fontColor=#050505;" vertex="1" parent="1">
          <mxGeometry x="330" y="80" width="200" height="40" as="geometry" />
        </mxCell>
      </root>
    </mxGraphModel>
  </diagram>
</mxfile>
